<?xml version="1.0" encoding="UTF-8" standalone="no"?>
<!-- Created with Inkscape (http://www.inkscape.org/) -->

<svg
   xmlns:dc="http://purl.org/dc/elements/1.1/"
   xmlns:cc="http://creativecommons.org/ns#"
   xmlns:rdf="http://www.w3.org/1999/02/22-rdf-syntax-ns#"
   xmlns:svg="http://www.w3.org/2000/svg"
   xmlns="http://www.w3.org/2000/svg"
   xmlns:sodipodi="http://sodipodi.sourceforge.net/DTD/sodipodi-0.dtd"
   xmlns:inkscape="http://www.inkscape.org/namespaces/inkscape"
   width="360"
   height="58"
   viewBox="0 0 95.249998 15.345834"
   version="1.1"
   id="svg8"
   inkscape:version="0.92.3 (2405546, 2018-03-11)"
   sodipodi:docname="maker-space.svg">
  <defs
     id="defs2" />
  <sodipodi:namedview
     id="base"
     pagecolor="#ffffff"
     bordercolor="#666666"
     borderopacity="1.0"
     inkscape:pageopacity="0.0"
     inkscape:pageshadow="2"
     inkscape:zoom="2.8"
     inkscape:cx="231.72491"
     inkscape:cy="55.621379"
     inkscape:document-units="mm"
     inkscape:current-layer="layer1"
     showgrid="false"
     inkscape:window-width="1920"
     inkscape:window-height="1027"
     inkscape:window-x="-8"
     inkscape:window-y="-8"
     inkscape:window-maximized="1"
     units="px" />
  <metadata
     id="metadata5">
    <rdf:RDF>
      <cc:Work
         rdf:about="">
        <dc:format>image/svg+xml</dc:format>
        <dc:type
           rdf:resource="http://purl.org/dc/dcmitype/StillImage" />
        <dc:title></dc:title>
      </cc:Work>
    </rdf:RDF>
  </metadata>
  <g
     inkscape:label="Ebene 1"
     inkscape:groupmode="layer"
     id="layer1"
     transform="translate(0,-281.65415)">
    <path
       style="fill:#FFFFFF;stroke-width:0.06480135"
       d="m 61.02995,290.89207 v -5.60532 h 1.00442 1.004421 v 5.60532 5.60531 H 62.03437 61.02995 Z m -44.324119,2.60209 c -0.516001,-0.12191 -0.792032,-0.25646 -1.103651,-0.53799 -0.54693,-0.49412 -0.775589,-1.0672 -0.775589,-1.94383 0,-1.17834 0.610918,-1.95096 1.784302,-2.25659 0.259447,-0.0676 0.687778,-0.0993 1.339778,-0.0993 h 0.958405 v 0.68041 0.68042 l -0.664213,10e-4 c -1.024637,0.002 -1.407251,0.22858 -1.459928,0.8638 -0.03927,0.47353 0.09859,0.72578 0.492509,0.90115 0.339209,0.15102 1.134817,0.18144 1.455416,0.0557 l 0.180192,-0.0707 -0.01819,0.78655 -0.01819,0.78656 -0.259206,0.0944 c -0.355234,0.12945 -1.466541,0.16319 -1.911639,0.058 z m 17.625964,-0.0144 c -0.981938,-0.21264 -1.772522,-0.81736 -2.169783,-1.65967 -0.318242,-0.67476 -0.42545,-1.14117 -0.46787,-2.03547 -0.112888,-2.37995 0.764464,-3.94228 2.503611,-4.45828 0.677716,-0.20108 0.652453,-0.22936 0.652453,0.73012 v 0.83456 l -0.207086,0.0858 c -0.325208,0.1347 -0.64236,0.4508 -0.80697,0.80428 -0.140767,0.30229 -0.151147,0.40521 -0.151734,1.50468 -4.9e-4,1.03075 0.01614,1.22499 0.131739,1.53399 0.143114,0.38251 0.519588,0.78042 0.846027,0.89422 l 0.188024,0.0656 v 0.90088 c 0,0.49549 -0.02187,0.89857 -0.0486,0.89573 -0.02673,-0.003 -0.238144,-0.0462 -0.46981,-0.0964 z m 1.231227,-0.73354 v -0.83506 l 0.297007,-0.0446 c 0.459994,-0.0689 0.799316,-0.2098 1.15797,-0.48059 l 0.328933,-0.24835 0.63737,0.59342 0.637374,0.59341 -0.405296,0.33192 c -0.222915,0.18256 -0.544432,0.40765 -0.714481,0.5002 -0.384432,0.20924 -1.208888,0.42466 -1.625237,0.42466 h -0.31364 z m 17.877466,0.73406 c -0.933749,-0.16904 -1.743563,-0.54484 -2.365022,-1.09753 l -0.291796,-0.2595 0.706162,-0.70126 0.706161,-0.70125 0.18869,0.15633 c 0.472426,0.39142 1.43343,0.76017 1.981094,0.76017 h 0.184037 v 0.97202 0.97202 l -0.307806,-0.006 c -0.169293,-0.003 -0.529977,-0.046 -0.80152,-0.0952 z m 1.757341,-0.8543 v -0.97204 l 0.307806,-0.0415 c 0.69501,-0.0935 1.236924,-0.49741 1.383765,-1.03123 0.0935,-0.33993 -0.0012,-0.86665 -0.208362,-1.15742 -0.213064,-0.29922 -0.578808,-0.42575 -1.751157,-0.60582 -1.295014,-0.19891 -1.978397,-0.40086 -2.502242,-0.73943 -0.763357,-0.49339 -1.116632,-1.18199 -1.166791,-2.2743 -0.03373,-0.73467 0.06006,-1.26642 0.317483,-1.79976 0.180049,-0.37305 0.724544,-0.95906 1.135802,-1.2224 0.35568,-0.22776 1.103139,-0.49927 1.560277,-0.56677 l 0.275404,-0.0407 v 0.95757 0.95758 l -0.316447,0.11239 c -0.977403,0.34714 -1.227247,1.67632 -0.416011,2.21317 0.293954,0.19453 0.720496,0.29923 2.124271,0.52146 1.199424,0.18987 1.751917,0.40834 2.243627,0.88715 0.610185,0.5942 0.841591,1.22965 0.845848,2.32277 0.0019,0.53245 -0.02799,0.77125 -0.138242,1.09813 -0.436493,1.29409 -1.620579,2.12494 -3.290024,2.30854 l -0.405007,0.0446 z m 9.052118,0.8881 c -0.511909,-0.12853 -0.498341,-0.10019 -0.498341,-1.04107 v -0.84451 l 0.145803,0.053 c 0.08019,0.0292 0.349927,0.0526 0.599414,0.0522 0.591718,-6.9e-4 0.866256,-0.16032 1.099987,-0.63804 0.413905,-0.846 0.350175,-2.9789 -0.108263,-3.62328 -0.196575,-0.27632 -0.569088,-0.43595 -1.017326,-0.43595 -0.212944,0 -0.46197,0.0285 -0.553393,0.0632 l -0.166222,0.0632 v -0.868 -0.86801 l 0.307807,-0.0969 c 1.044768,-0.32873 2.337171,-0.0674 2.989171,0.60445 0.32172,0.33151 0.566195,0.83306 0.70594,1.44823 0.155509,0.6846 0.151921,3.38919 -0.0054,4.02788 -0.250289,1.01646 -0.769788,1.69286 -1.522048,1.98177 -0.418164,0.16059 -1.546056,0.23012 -1.977178,0.12187 z m 7.148219,0.0264 c -0.894387,-0.17112 -1.526187,-0.62579 -1.852979,-1.3335 -0.173268,-0.37523 -0.188261,-0.46706 -0.188261,-1.15292 0,-0.87912 0.103169,-1.1758 0.571857,-1.64449 0.58328,-0.58328 1.151631,-0.75316 2.51982,-0.75316 h 0.95841 v 0.67342 0.67343 l -0.729023,0.0258 c -0.822805,0.0292 -1.074254,0.11961 -1.28245,0.46107 -0.157963,0.25907 -0.164949,0.70638 -0.01499,0.96024 0.179335,0.3036 0.603492,0.47056 1.180293,0.46459 0.269365,-0.003 0.570839,-0.0369 0.669948,-0.0758 l 0.180191,-0.0707 -0.01817,0.78656 -0.01817,0.78655 -0.259202,0.0944 c -0.257473,0.0938 -1.407116,0.16369 -1.71724,0.10435 z m 9.252441,-0.0654 c -1.219954,-0.27732 -2.156793,-1.25344 -2.495625,-2.60027 -0.08064,-0.32054 -0.110213,-0.72016 -0.111401,-1.50559 -0.0014,-1.1968 0.10881,-1.75108 0.493632,-2.47309 0.239675,-0.44967 0.877984,-1.07863 1.324072,-1.30468 0.268059,-0.13584 0.997227,-0.36951 1.153035,-0.36951 0.02163,0 0.03925,0.43741 0.03925,0.97202 0,0.58145 -0.02515,0.97202 -0.06253,0.97202 -0.134403,0 -0.537169,0.42569 -0.692169,0.73156 -0.235094,0.46394 -0.329822,1.30118 -0.233525,2.06405 0.107386,0.85081 0.367638,1.33411 0.884886,1.64328 0.09487,0.0567 0.106074,0.18279 0.08968,1.00962 l -0.01872,0.94482 z m 1.11578,-0.80099 c 0,-0.82027 0.01085,-0.90735 0.113398,-0.90864 0.189519,-0.003 0.684871,-0.25381 0.891022,-0.45226 l 0.194404,-0.18714 0.712814,0.67663 0.712814,0.67664 -0.291607,0.25896 c -0.547146,0.48589 -1.424612,0.83945 -2.089847,0.84207 l -0.242998,6.9e-4 z m 6.285729,0.80612 c -0.653849,-0.14093 -1.294548,-0.48861 -1.682369,-0.91296 -0.386328,-0.4227 -0.577734,-0.77402 -0.789992,-1.45002 -0.136655,-0.43521 -0.152098,-0.60608 -0.152098,-1.68321 0,-1.07769 0.01541,-1.24784 0.152347,-1.68404 0.189533,-0.60365 0.344256,-0.91489 0.660757,-1.32922 0.467059,-0.61141 1.253043,-1.07269 1.995685,-1.1712 l 0.334079,-0.0443 v 0.84442 0.84443 l -0.204837,0.0714 c -0.346855,0.12091 -0.61955,0.37751 -0.805836,0.75826 -0.165944,0.33918 -0.18033,0.43472 -0.207422,1.37757 -0.02287,0.79607 -0.0069,1.10075 0.07579,1.42222 0.144401,0.56316 0.415631,0.93737 0.815239,1.12481 l 0.321753,0.15091 0.0028,0.89102 c 0.0014,0.49006 -0.01921,0.88871 -0.04595,0.88587 -0.02674,-0.003 -0.238148,-0.046 -0.469815,-0.0959 z m 1.166419,-0.73523 v -0.83634 l 0.340208,-0.0442 c 0.430514,-0.056 0.924063,-0.27595 1.23856,-0.55208 l 0.244436,-0.21461 0.615453,0.60997 0.615459,0.60997 -0.360231,0.33031 c -0.619785,0.56831 -1.543316,0.92911 -2.386076,0.93219 l -0.307809,10e-4 z M 2.708741,288.67802 c 0,-2.66117 0.010948,-4.82635 0.024345,-4.8115 0.013397,0.0149 0.4945443,1.03918 1.069221,2.27629 l 1.0448713,2.24929 v 2.56221 2.56221 H 3.7779547 2.7087337 Z m 8.038878,2.19784 0.0035,-2.64065 1.062199,-2.10604 1.062199,-2.10604 0.0035,4.74669 0.0035,4.7467 h -1.069149 -1.069224 l 0.0035,-2.64066 z m 8.809471,-0.16853 c 0,-1.92463 -0.02318,-2.87855 -0.07362,-3.02946 -0.17211,-0.51497 -0.653464,-0.77108 -1.449214,-0.77108 -0.58305,0 -0.98376,0.13523 -1.346325,0.45437 l -0.284294,0.25025 -0.630974,-0.63335 -0.630971,-0.63335 0.361012,-0.32994 c 0.677413,-0.61912 1.337892,-0.82005 2.661155,-0.80959 1.734756,0.0138 2.783512,0.54251 3.220384,1.62374 0.147754,0.36568 0.149476,0.40188 0.167826,3.52854 l 0.01854,3.15906 h -1.006758 -1.00676 z m 4.276889,-2.82852 v -5.63772 h 1.004421 1.004421 v 5.63772 5.63771 H 24.8384 23.833979 Z m 4.811617,5.35115 c -0.09808,-0.15761 -0.557411,-0.92968 -1.02074,-1.7157 -0.582999,-0.98904 -0.877337,-1.42961 -0.955819,-1.43067 -0.103595,-0.001 -0.113402,-0.099 -0.113402,-1.12825 v -1.1267 l 1.020619,-1.26683 1.020622,-1.26682 1.248597,-0.004 1.248597,-0.004 -1.443001,1.62479 c -0.793651,0.89364 -1.440096,1.65953 -1.436542,1.70199 0.0035,0.0424 0.708688,1.16299 1.566971,2.49009 l 1.560513,2.4129 h -1.259045 -1.259048 z m 12.101531,-3.82832 v -4.11489 h 1.004421 1.004423 v 4.11489 4.11488 h -1.004423 -1.004421 z m 33.307896,1.26154 c 0,-3.12379 -6.91e-4,-3.12809 -0.38201,-3.44912 -0.264846,-0.22286 -0.576904,-0.30647 -1.145483,-0.30692 -0.563798,-4.9e-4 -0.967524,0.13095 -1.314219,0.42771 -0.323653,0.27704 -0.316737,0.28002 -1.034518,-0.44553 l -0.538957,-0.5448 0.360904,-0.32984 c 0.677302,-0.61903 1.337846,-0.81996 2.661054,-0.8095 1.69104,0.0134 2.708996,0.50293 3.178576,1.52862 0.235875,0.51521 0.287185,1.25379 0.287765,4.14206 l 6.91e-4,2.64066 h -1.036818 -1.036819 v -2.85334 z m -67.0906029,0.11751 c -0.5042112,-0.8132 -2.2808008,-4.27103 -3.1574965,-6.1455 -0.6040008,-1.29144 -1.0981826,-2.35913 -1.0981826,-2.37265 0,-0.0135 0.4825605,-0.0166 1.0723559,-0.007 l 1.0723587,0.0178 2.0219072,4.00018 2.0219075,4.00018 -0.1620039,0.30911 -0.1620038,0.3091 -0.7585909,0.0182 c -0.7293207,0.0176 -0.7621275,0.0125 -0.8502516,-0.1296 z m 27.3673749,-1.44386 v -0.68041 h 1.231227 1.231224 l -7.6e-4,-0.27541 c -7.6e-4,-0.32386 -0.231487,-0.85096 -0.480193,-1.09691 -0.09649,-0.0954 -0.30469,-0.22664 -0.462672,-0.2916 l -0.287226,-0.11811 -2.42e-4,-0.82622 -2.45e-4,-0.82622 h 0.180789 c 0.642536,0 1.549462,0.43736 2.067738,0.99716 0.693384,0.74894 0.988489,1.6441 0.990417,3.00432 l 0.0012,0.79382 h -2.235604 -2.235645 z m 53.720321,0 v -0.68041 h 1.200856 c 1.371816,0 1.330014,0.0192 1.202279,-0.55159 -0.128184,-0.5728 -0.579316,-1.07412 -1.058507,-1.17626 l -0.178209,-0.038 v -0.83432 -0.83431 h 0.213191 c 0.32035,0 0.934801,0.17658 1.303931,0.37474 0.477374,0.25625 1.069971,0.87688 1.31281,1.37489 0.317123,0.65035 0.414837,1.1054 0.455699,2.12224 l 0.0371,0.92342 h -2.244584 -2.244577 z m -79.3430433,-0.86241 -0.5522891,-1.10314 1.2983033,-2.5651 1.2983021,-2.56509 h 1.06458 1.064582 v 0.16236 c 0,0.17709 -1.894628,4.0082 -2.9320927,5.92896 -0.3561355,0.65936 -0.6568757,1.20925 -0.6683087,1.22199 -0.011435,0.0127 -0.2693174,-0.47326 -0.5730769,-1.07998 z m 74.1538513,-0.95815 c -0.143648,-0.17308 -0.7291,-0.47863 -0.918336,-0.47928 l -0.178201,-4.9e-4 v -0.93656 -0.93657 l 0.3402,0.035 c 0.756116,0.0779 1.497949,0.38372 2.025043,0.83477 l 0.259209,0.2218 -0.679255,0.68236 c -0.373594,0.3753 -0.698083,0.68236 -0.721084,0.68236 -0.02301,0 -0.08041,-0.0465 -0.127576,-0.10333 z m -37.892927,-0.24481 c -0.252252,-0.18205 -0.328078,-0.20268 -0.745216,-0.20268 -0.255413,0 -0.530001,0.0238 -0.610192,0.053 l -0.145805,0.053 v -0.83975 -0.83975 l 0.25895,-0.10361 c 0.671125,-0.26853 1.662906,-0.26473 2.278337,0.009 0.322557,0.14333 0.702781,0.44492 0.702781,0.55744 0,0.0419 -0.328056,0.40031 -0.729014,0.79633 l -0.729015,0.72002 z m 12.104907,-2.70091 c -0.297699,-0.24829 -0.881577,-0.45037 -1.435428,-0.4968 l -0.441647,-0.037 v -0.93999 -0.94 l 0.599411,0.0406 c 1.037597,0.0702 1.775769,0.33404 2.568409,0.918 l 0.41376,0.30484 -0.671809,0.67411 c -0.369496,0.37075 -0.70149,0.67256 -0.737768,0.67069 -0.03627,-0.002 -0.168996,-0.0894 -0.294928,-0.19438 z"
       id="path826"
       inkscape:connector-curvature="0" />
  </g>
</svg>
